<svg width="100" height="37" viewBox="0 0 100 37" fill="none" xmlns="http://www.w3.org/2000/svg">
<g clip-path="url(#clip0_66_380)">
<path d="M0 24.597H4.32582C4.32582 26.5015 5.911 27.4206 7.66807 27.4206C9.28189 27.4206 10.8575 26.5773 10.8575 25.1087C10.8575 23.5832 9.05271 23.1663 6.89458 22.6642C3.90565 21.9346 0.276929 21.0724 0.276929 16.8276C0.276929 13.0565 3.07487 10.9247 7.46753 10.9247C12.0225 10.9247 14.6199 13.3408 14.6199 17.2634H10.3801C10.3801 15.5674 8.96677 14.7715 7.36249 14.7715C5.9683 14.7715 4.56455 15.359 4.56455 16.6476C4.56455 18.0309 6.28342 18.4478 8.38426 18.95C11.4114 19.708 15.2024 20.646 15.2024 25.0518C15.2024 29.3061 11.7934 31.3622 7.68717 31.3622C3.13216 31.3622 0 28.8229 0 24.597Z" fill="#231331"/>
<path d="M24.6371 31.4C20.0344 31.4 16.5107 27.8848 16.5107 23.3368C16.5107 18.7888 20.0057 15.3589 24.6562 15.3589C28.6192 15.3589 31.694 17.8508 32.4389 21.5839H28.3327C27.6642 20.0869 26.2891 19.2152 24.6371 19.2152C22.393 19.2152 20.7028 21.006 20.7028 23.3557C20.7028 25.7055 22.4217 27.5437 24.6371 27.5437C26.3082 27.5437 27.626 26.6246 28.3327 24.9949H32.4962C31.7704 28.8133 28.6383 31.4 24.6371 31.4Z" fill="#231331"/>
<path d="M33.3652 23.3842C33.3652 18.7794 36.8984 15.3684 41.6348 15.3684C46.3522 15.3684 49.9045 18.7889 49.9045 23.3842C49.9045 27.9606 46.3522 31.4 41.6348 31.4C36.8984 31.4 33.3652 27.9606 33.3652 23.3842ZM45.7124 23.3842C45.7124 20.9302 44.0222 19.2247 41.6348 19.2247C39.2475 19.2247 37.5573 20.9302 37.5573 23.3842C37.5573 25.8382 39.2475 27.5437 41.6348 27.5437C44.0222 27.5437 45.7124 25.8382 45.7124 23.3842Z" fill="#231331"/>
<path d="M51.0218 23.3842C51.0218 18.7794 54.555 15.3684 59.2915 15.3684C64.0088 15.3684 67.5611 18.7889 67.5611 23.3842C67.5611 27.9606 64.0088 31.4 59.2915 31.4C54.5455 31.4 51.0218 27.9606 51.0218 23.3842ZM63.369 23.3842C63.369 20.9302 61.6788 19.2247 59.2915 19.2247C56.9041 19.2247 55.2139 20.9302 55.2139 23.3842C55.2139 25.8382 56.9041 27.5437 59.2915 27.5437C61.6692 27.5437 63.369 25.8382 63.369 23.3842Z" fill="#231331"/>
<path d="M78.0176 15.3684C82.6299 15.3684 86.0294 18.7889 86.0294 23.3842C86.0294 27.9796 82.6203 31.4285 78.0176 31.4285C76.4324 31.4285 74.9905 30.9642 73.8063 30.1493V36.4502H69.6715V15.7948H72.4026L73.1092 17.1781C74.4175 16.0317 76.1077 15.3684 78.0176 15.3684ZM81.8468 23.3842C81.8468 20.9965 80.0898 19.2247 77.6834 19.2247C75.2769 19.2247 73.5103 21.006 73.5103 23.3842C73.5103 25.7624 75.2769 27.5437 77.6834 27.5437C80.0802 27.5437 81.8468 25.7719 81.8468 23.3842Z" fill="#231331"/>
<path d="M93.5829 31.4C89.7441 31.4 87.1753 29.2207 87.1562 25.9708H91.186C91.2051 27.3258 92.246 27.9985 93.7357 27.9985C94.8816 27.9985 95.9129 27.4868 95.9129 26.4635C95.9129 25.4213 94.5856 25.1086 92.9718 24.8433C90.5271 24.4359 87.4141 23.7916 87.4141 20.2101C87.4141 17.3392 89.8778 15.3589 93.5734 15.3589C97.2689 15.3589 99.6944 17.396 99.704 20.428H95.7792C95.7601 19.2247 94.9103 18.6277 93.4683 18.6277C92.1792 18.6277 91.4248 19.2152 91.4248 20.0774C91.4248 21.0912 92.733 21.3281 94.3182 21.6124C96.8106 22.0577 100 22.5788 100 26.2835C100 29.3913 97.4408 31.4 93.5829 31.4Z" fill="#231331"/>
<path d="M33.432 24.2464C33.1742 22.2283 33.6803 20.428 34.7307 18.8362C35.0077 18.4099 35.9148 17.1497 37.4332 16.4106C39.8969 15.2073 43.3919 15.6242 44.5474 19.4521C45.3018 23.1473 41.9022 24.5781 39.725 23.7348C38.8274 23.3842 38.1685 22.5788 37.9488 22.4367C36.0963 21.1671 34.0623 22.1146 33.432 24.2464Z" fill="#231331"/>
<path d="M51.0791 24.2464C50.8212 22.2283 51.3273 20.428 52.3778 18.8362C52.6547 18.4099 53.5619 17.1497 55.0802 16.4106C57.5439 15.2073 61.0389 15.6242 62.1944 19.4521C62.9488 23.1473 59.5493 24.5781 57.372 23.7348C56.4744 23.3842 55.8155 22.5788 55.5959 22.4367C53.7433 21.1671 51.7189 22.1146 51.0791 24.2464Z" fill="#231331"/>
<path d="M24.5798 11.9953C21.7628 11.9953 19.5951 9.83499 19.5951 7.04936C19.5951 4.26372 21.7437 2.16028 24.5894 2.16028C27.0149 2.16028 28.9056 3.68575 29.364 5.97869H26.843C26.4324 5.05961 25.592 4.52902 24.5798 4.52902C23.2047 4.52902 22.1734 5.62811 22.1734 7.06831C22.1734 8.5085 23.2238 9.63602 24.5798 9.63602C25.6016 9.63602 26.4133 9.06752 26.843 8.07265H29.3926C28.9534 10.413 27.034 11.9953 24.5798 11.9953Z" fill="#231331"/>
<path d="M30.424 7.80731V2.42554H32.9641V7.51359C32.9641 8.84008 33.6707 9.6265 34.8453 9.6265C36.0198 9.6265 36.7074 8.82113 36.7074 7.51359V2.42554H39.2475V7.79784C39.2475 10.3087 37.5 11.9858 34.8453 11.9858C32.1906 11.9952 30.424 10.3182 30.424 7.80731Z" fill="#231331"/>
<path d="M44.3659 11.9953C42.0072 11.9953 40.4412 10.6593 40.4221 8.66957H42.8953C42.9049 9.49389 43.5447 9.91079 44.4614 9.91079C45.1681 9.91079 45.7983 9.59812 45.7983 8.97277C45.7983 8.33795 44.9866 8.14845 43.9935 7.9779C42.4943 7.73155 40.5939 7.3336 40.5939 5.13541C40.5939 3.37307 42.1027 2.16028 44.3659 2.16028C46.6291 2.16028 48.1188 3.41097 48.1283 5.26806H45.7219C45.7124 4.52902 45.1871 4.15949 44.3086 4.15949C43.516 4.15949 43.0577 4.51954 43.0577 5.05014C43.0577 5.66601 43.8598 5.81761 44.8338 5.98816C46.3617 6.26293 48.3193 6.58508 48.3193 8.8496C48.2907 10.7635 46.7341 11.9953 44.3659 11.9953Z" fill="#231331"/>
<path d="M55.3667 9.49391V11.73H53.5619C51.4992 11.73 50.2292 10.4698 50.2292 8.40429V4.45323H48.5294V3.91316L52.2441 0H52.7311V2.42559H55.319V4.45323H52.7693V8.08214C52.7693 8.98226 53.2945 9.49391 54.2112 9.49391H55.3667Z" fill="#231331"/>
<path d="M55.9587 7.07778C55.9587 4.25424 58.1264 2.16028 61.0294 2.16028C63.9228 2.16028 66.1001 4.25424 66.1001 7.07778C66.1001 9.88237 63.9228 11.9953 61.0294 11.9953C58.1264 11.9953 55.9587 9.89184 55.9587 7.07778ZM63.5313 7.07778C63.5313 5.57126 62.4904 4.52902 61.0294 4.52902C59.5684 4.52902 58.5275 5.57126 58.5275 7.07778C58.5275 8.5843 59.5684 9.62654 61.0294 9.62654C62.4904 9.62654 63.5313 8.5843 63.5313 7.07778Z" fill="#231331"/>
<path d="M81.3694 5.90287V11.7394H78.8293V6.3103C78.8293 5.06908 78.3422 4.41531 77.416 4.41531C76.2796 4.41531 75.6111 5.23963 75.6111 6.69877V11.73H73.1474V6.3103C73.1474 5.06908 72.67 4.41531 71.7628 4.41531C70.6169 4.41531 69.9293 5.23963 69.9293 6.69877V11.73H67.3892V2.42557H69.1654L69.6428 3.58151C70.3113 2.74771 71.3331 2.20764 72.4408 2.20764C73.6344 2.20764 74.618 2.75719 75.1623 3.69521C75.8021 2.79509 76.8716 2.20764 78.0653 2.20764C80.0134 2.20764 81.3694 3.71416 81.3694 5.90287Z" fill="#231331"/>
<path d="M92.2746 7.04931C92.2746 7.29566 92.2555 7.54201 92.2269 7.78836H85.1317C85.3514 9.058 86.1917 9.75915 87.4236 9.75915C88.3021 9.75915 89.0278 9.34225 89.4098 8.679H92.0741C91.3961 10.7066 89.6008 12.0047 87.4236 12.0047C84.6543 12.0047 82.563 9.87285 82.563 7.08721C82.563 4.28262 84.6447 2.16971 87.4236 2.16971C90.2979 2.16023 92.2746 4.3679 92.2746 7.04931ZM85.1986 6.06392H89.744C89.3812 4.92692 88.5599 4.31105 87.4236 4.31105C86.2872 4.31105 85.4851 4.96482 85.1986 6.06392Z" fill="#231331"/>
<path d="M99.1883 2.37825V4.75646H98.0901C96.6577 4.75646 96.0943 5.38181 96.0943 6.90728V11.7395H93.5542V2.42562H95.1776L95.6264 3.56262C96.2948 2.7383 97.1447 2.36877 98.3479 2.36877H99.1883V2.37825Z" fill="#231331"/>
</g>
<defs>
<clipPath id="clip0_66_380">
<rect width="100" height="36.4407" fill="white"/>
</clipPath>
</defs>
</svg>
